<?xml version="1.0" encoding="UTF-8" standalone="no"?>
<!DOCTYPE svg PUBLIC "-//W3C//DTD SVG 1.1//EN" "http://www.w3.org/Graphics/SVG/1.1/DTD/svg11.dtd">
<svg width="100%" height="100%" viewBox="0 0 26 29" version="1.1" xmlns="http://www.w3.org/2000/svg" xmlns:xlink="http://www.w3.org/1999/xlink" xml:space="preserve" xmlns:serif="http://www.serif.com/" style="fill-rule:evenodd;clip-rule:evenodd;stroke-linejoin:round;stroke-miterlimit:2;">
    <g transform="matrix(1,0,0,1,-1740.55,-1444.09)">
        <path d="M1756.78,1464.61L1758.01,1463.56C1758.16,1463.43 1758.37,1463.42 1758.53,1463.53C1759.1,1463.9 1760.3,1464.89 1761.2,1465.49C1761.79,1465.88 1762.62,1466.09 1763.31,1465.98C1765.07,1465.7 1765.98,1464.78 1765.98,1464.78L1765.98,1471.27C1765.98,1471.96 1765.42,1472.53 1764.72,1472.53L1741.82,1472.53C1741.12,1472.53 1740.55,1471.96 1740.55,1471.27L1740.55,1464.78C1740.55,1464.78 1741.47,1465.7 1743.22,1465.98C1743.92,1466.09 1744.75,1465.88 1745.33,1465.49C1746.23,1464.89 1747.44,1463.9 1748.01,1463.53C1748.17,1463.42 1748.38,1463.43 1748.52,1463.56L1749.45,1464.35C1750.3,1465.2 1751.56,1465.83 1753.21,1465.83C1754.73,1465.83 1755.96,1465.43 1756.78,1464.61ZM1753.27,1453.16L1753.27,1453.15L1753.27,1453.16L1753.27,1453.15L1753.27,1453.16L1754.68,1453.16L1754.68,1455.76L1762.1,1455.76C1764.28,1455.76 1765.99,1457.75 1765.99,1458.98L1765.99,1461.61C1765.99,1462.61 1765.5,1463.18 1764.84,1463.7C1764.49,1463.98 1762.46,1464.83 1760.53,1462.72C1759.37,1461.54 1758.81,1461.08 1758.56,1460.85C1758.41,1460.74 1758.2,1460.76 1758.06,1460.88C1757.37,1461.5 1755.44,1463.24 1755.44,1463.24C1755.44,1463.24 1754.69,1464.09 1753.27,1464.09L1753.27,1464.09C1751.85,1464.09 1751.09,1463.24 1751.09,1463.24C1751.09,1463.24 1749.16,1461.5 1748.48,1460.88C1748.34,1460.76 1748.13,1460.74 1747.97,1460.85C1747.73,1461.08 1747.16,1461.54 1746,1462.72C1744.08,1464.83 1742.05,1463.98 1741.69,1463.7C1741.04,1463.18 1740.55,1462.61 1740.55,1461.61L1740.55,1458.98C1740.55,1457.75 1742.25,1455.76 1744.44,1455.76L1751.86,1455.76L1751.86,1453.16L1753.27,1453.16ZM1753.27,1444.1L1753.27,1444.1L1753.27,1444.1L1753.27,1444.1L1753.27,1444.1L1755.67,1447.77C1755.67,1447.77 1756.31,1448.71 1756.1,1449.71C1755.89,1450.72 1755.04,1451.87 1753.27,1451.87L1753.27,1451.87C1751.49,1451.87 1750.65,1450.72 1750.44,1449.71C1750.23,1448.71 1750.87,1447.77 1750.87,1447.77L1753.27,1444.1Z" style="fill:white;"/>
    </g>
</svg>
