<?xml version="1.0" encoding="UTF-8" standalone="no"?>
<!-- Generator: Adobe Illustrator 16.0.0, SVG Export Plug-In . SVG Version: 6.00 Build 0)  -->

<svg
   xmlns:dc="http://purl.org/dc/elements/1.1/"
   xmlns:cc="http://creativecommons.org/ns#"
   xmlns:rdf="http://www.w3.org/1999/02/22-rdf-syntax-ns#"
   xmlns:svg="http://www.w3.org/2000/svg"
   xmlns="http://www.w3.org/2000/svg"
   xmlns:sodipodi="http://sodipodi.sourceforge.net/DTD/sodipodi-0.dtd"
   xmlns:inkscape="http://www.inkscape.org/namespaces/inkscape"
   version="1.1"
   id="Capa_1"
   x="0px"
   y="0px"
   width="451.84601"
   height="257.56549"
   viewBox="0 0 451.84602 257.5655"
   xml:space="preserve"
   sodipodi:docname="arrow_down.svg"
   inkscape:version="0.92.5 (2060ec1f9f, 2020-04-08)"><metadata
   id="metadata41"><rdf:RDF><cc:Work
       rdf:about=""><dc:format>image/svg+xml</dc:format><dc:type
         rdf:resource="http://purl.org/dc/dcmitype/StillImage" /><dc:title></dc:title></cc:Work></rdf:RDF></metadata><defs
   id="defs39" /><sodipodi:namedview
   pagecolor="#ffffff"
   bordercolor="#666666"
   borderopacity="1"
   objecttolerance="10"
   gridtolerance="10"
   guidetolerance="10"
   inkscape:pageopacity="0"
   inkscape:pageshadow="2"
   inkscape:window-width="1769"
   inkscape:window-height="1035"
   id="namedview37"
   showgrid="false"
   inkscape:zoom="0.52230071"
   inkscape:cx="-756.27007"
   inkscape:cy="128.78251"
   inkscape:window-x="0"
   inkscape:window-y="26"
   inkscape:window-maximized="0"
   inkscape:current-layer="g4"
   fit-margin-top="0"
   fit-margin-left="0"
   fit-margin-right="0"
   fit-margin-bottom="0" />
<g
   id="g4"
   transform="translate(-7.5e-4,-97.1405)">
	<path
   d="m 225.923,354.706 c -8.098,0 -16.195,-3.092 -22.369,-9.263 L 9.27,151.157 c -12.359,-12.359 -12.359,-32.397 0,-44.751 12.354,-12.354 32.388,-12.354 44.748,0 L 225.923,278.321 397.829,106.412 c 12.359,-12.354 32.391,-12.354 44.744,0 12.365,12.354 12.365,32.392 0,44.751 L 248.292,345.449 c -6.177,6.172 -14.274,9.257 -22.369,9.257 z"
   id="path2"
   style="fill:#ffffff;fill-opacity:1"
   inkscape:connector-curvature="0" />
</g>
<g
   id="g6"
   transform="translate(-7.5e-4,-97.1405)">
</g>
<g
   id="g8"
   transform="translate(-7.5e-4,-97.1405)">
</g>
<g
   id="g10"
   transform="translate(-7.5e-4,-97.1405)">
</g>
<g
   id="g12"
   transform="translate(-7.5e-4,-97.1405)">
</g>
<g
   id="g14"
   transform="translate(-7.5e-4,-97.1405)">
</g>
<g
   id="g16"
   transform="translate(-7.5e-4,-97.1405)">
</g>
<g
   id="g18"
   transform="translate(-7.5e-4,-97.1405)">
</g>
<g
   id="g20"
   transform="translate(-7.5e-4,-97.1405)">
</g>
<g
   id="g22"
   transform="translate(-7.5e-4,-97.1405)">
</g>
<g
   id="g24"
   transform="translate(-7.5e-4,-97.1405)">
</g>
<g
   id="g26"
   transform="translate(-7.5e-4,-97.1405)">
</g>
<g
   id="g28"
   transform="translate(-7.5e-4,-97.1405)">
</g>
<g
   id="g30"
   transform="translate(-7.5e-4,-97.1405)">
</g>
<g
   id="g32"
   transform="translate(-7.5e-4,-97.1405)">
</g>
<g
   id="g34"
   transform="translate(-7.5e-4,-97.1405)">
</g>
</svg>