<?xml version="1.0" encoding="UTF-8" standalone="no"?>
<!DOCTYPE svg PUBLIC "-//W3C//DTD SVG 1.1//EN" "http://www.w3.org/Graphics/SVG/1.1/DTD/svg11.dtd">
<svg width="100%" height="100%" viewBox="0 0 18 29" version="1.1" xmlns="http://www.w3.org/2000/svg" xmlns:xlink="http://www.w3.org/1999/xlink" xml:space="preserve" xmlns:serif="http://www.serif.com/" style="fill-rule:evenodd;clip-rule:evenodd;stroke-linejoin:round;stroke-miterlimit:2;">
    <g transform="matrix(1,0,0,1,-1515.4,-1443.98)">
        <g transform="matrix(0.837255,0,0,0.799001,1192.45,1026.45)">
            <g transform="matrix(-0.619917,0,0,0.619917,626.538,206.104)">
                <g transform="matrix(-1.49901,0,0,1.57078,3061.41,-602.969)">
                    <path d="M1787.59,728C1789.5,729.142 1791.73,729.798 1794.11,729.798C1796.48,729.798 1798.7,729.146 1800.61,728.012C1803.83,732.096 1804.66,736.87 1805.04,741.48C1805.05,741.614 1805.05,741.749 1805.05,741.883C1805.05,742.234 1805,742.581 1804.89,742.911C1804.77,743.286 1804.57,743.637 1804.28,743.946C1803.64,744.628 1802.69,745.022 1801.7,745.022C1800.93,745.023 1800.1,745.023 1799.24,745.023L1799.24,745.026L1790.46,745.026C1789.53,745.026 1788.95,745.026 1788.95,745.026L1788.95,745.023C1788.09,745.023 1787.26,745.023 1786.5,745.022C1785.5,745.022 1784.55,744.628 1783.91,743.946C1783.62,743.637 1783.42,743.286 1783.3,742.911C1783.19,742.581 1783.14,742.234 1783.14,741.883C1783.14,741.749 1783.14,741.614 1783.16,741.48C1783.53,736.865 1784.36,732.087 1787.59,728Z" style="fill:white;"/>
                </g>
                <g transform="matrix(0.92926,0,0,0.973751,-623.018,-4)">
                    <circle cx="1070.78" cy="541.629" r="13.266" style="fill:white;"/>
                </g>
            </g>
        </g>
    </g>
</svg>
