<?xml version="1.0" encoding="UTF-8" standalone="no"?>
<!DOCTYPE svg PUBLIC "-//W3C//DTD SVG 1.1//EN" "http://www.w3.org/Graphics/SVG/1.1/DTD/svg11.dtd">
<svg width="100%" height="100%" viewBox="0 0 29 29" version="1.1" xmlns="http://www.w3.org/2000/svg" xmlns:xlink="http://www.w3.org/1999/xlink" xml:space="preserve" xmlns:serif="http://www.serif.com/" style="fill-rule:evenodd;clip-rule:evenodd;stroke-linejoin:round;stroke-miterlimit:2;">
    <g transform="matrix(1,0,0,1,-1644.8,-1443.88)">
        <g transform="matrix(0.837255,0,0,0.991259,1343.29,993.202)">
            <g transform="matrix(1.16641,0,0,0.985196,-2414.09,-115.669)">
                <path d="M2393.08,578.893C2401.18,578.893 2407.75,585.467 2407.75,593.565C2407.75,601.662 2401.18,608.236 2393.08,608.236C2384.98,608.236 2378.41,601.662 2378.41,593.565C2378.41,585.467 2384.98,578.893 2393.08,578.893ZM2393.08,582.561C2399.16,582.561 2404.09,587.492 2404.09,593.565C2404.09,599.638 2399.16,604.569 2393.08,604.569C2387.01,604.569 2382.08,599.638 2382.08,593.565C2382.08,587.492 2387.01,582.561 2393.08,582.561ZM2391.83,587.951L2391.83,593.565C2391.83,593.964 2392.02,594.339 2392.35,594.575L2396.33,597.483C2396.89,597.89 2397.67,597.767 2398.08,597.21C2398.49,596.652 2398.36,595.87 2397.81,595.463L2394.33,592.929C2394.33,592.929 2394.33,587.951 2394.33,587.951C2394.33,587.261 2393.77,586.701 2393.08,586.701C2392.39,586.701 2391.83,587.261 2391.83,587.951Z" style="fill:white;"/>
            </g>
        </g>
    </g>
</svg>
